<svg width="16" height="16" viewBox="0 0 16 16" fill="none" xmlns="http://www.w3.org/2000/svg">
<g id="arrow_forward_ios">
<mask id="mask0_760_1587" style="mask-type:alpha" maskUnits="userSpaceOnUse" x="0" y="0" width="16" height="16">
<rect id="Bounding box" x="16" width="16" height="16" transform="rotate(90 16 0)" fill="#D9D9D9"/>
</mask>
<g mask="url(#mask0_760_1587)">
<path id="arrow_forward_ios_2" d="M7.99992 9.64999L12.8999 4.74999C13.0666 4.58333 13.2638 4.50277 13.4916 4.50833C13.7194 4.51388 13.9166 4.59999 14.0833 4.76666C14.2499 4.93333 14.3333 5.13055 14.3333 5.35833C14.3333 5.5861 14.2499 5.78333 14.0833 5.94999L8.94992 11.0667C8.81659 11.2 8.66659 11.3 8.49992 11.3667C8.33325 11.4333 8.16659 11.4667 7.99992 11.4667C7.83325 11.4667 7.66659 11.4333 7.49992 11.3667C7.33325 11.3 7.18325 11.2 7.04992 11.0667L1.91659 5.93332C1.74992 5.76666 1.66936 5.57221 1.67492 5.34999C1.68047 5.12777 1.76659 4.93332 1.93325 4.76666C2.09992 4.59999 2.29714 4.51666 2.52492 4.51666C2.7527 4.51666 2.94992 4.59999 3.11659 4.76666L7.99992 9.64999Z" fill="#138ED1"/>
</g>
</g>
</svg>
