<svg width="18" height="18" viewBox="0 0 18 18" fill="none" xmlns="http://www.w3.org/2000/svg">
<g id="call">
<mask id="mask0_767_1737" style="mask-type:alpha" maskUnits="userSpaceOnUse" x="0" y="0" width="18" height="18">
<rect id="Bounding box" width="18" height="18" fill="#D9D9D9"/>
</mask>
<g mask="url(#mask0_767_1737)">
<path id="call_2" d="M14.1981 15C12.9337 15 11.6375 14.6834 10.3096 14.0502C8.98173 13.4171 7.74807 12.5284 6.60864 11.3841C5.46922 10.2399 4.58293 9.00624 3.94976 7.68317C3.31659 6.36009 3 5.06634 3 3.80192C3 3.57279 3.075 3.38186 3.225 3.22912C3.375 3.07637 3.5625 3 3.7875 3H5.64231C5.84616 3 6.02404 3.06418 6.17597 3.19254C6.32789 3.32091 6.43078 3.48557 6.48461 3.68653L6.85672 5.475C6.89135 5.68461 6.8851 5.86779 6.83797 6.02452C6.79086 6.18125 6.70769 6.30961 6.58847 6.40961L4.94278 7.94423C5.25048 8.50289 5.59063 9.02188 5.96323 9.50121C6.33582 9.98053 6.73317 10.4346 7.15528 10.8635C7.59087 11.299 8.05962 11.7041 8.56153 12.0786C9.06346 12.4531 9.61442 12.8067 10.2144 13.1394L11.8183 11.5067C11.9404 11.375 12.0776 11.2882 12.23 11.2464C12.3824 11.2046 12.551 11.1961 12.7356 11.2211L14.3135 11.5442C14.5173 11.5942 14.6827 11.6969 14.8096 11.8522C14.9365 12.0074 15 12.1856 15 12.3865V14.2125C15 14.4375 14.9236 14.625 14.7709 14.775C14.6181 14.925 14.4272 15 14.1981 15ZM4.59086 7.24039L6.03028 5.91634C6.07836 5.87788 6.10961 5.82499 6.12403 5.75769C6.13846 5.69038 6.13606 5.62788 6.11683 5.57019L5.78364 3.98077C5.76442 3.90385 5.73077 3.84616 5.68269 3.80769C5.63462 3.76923 5.57212 3.75 5.49519 3.75H3.95625C3.89856 3.75 3.85049 3.76923 3.81203 3.80769C3.77356 3.84616 3.75433 3.89423 3.75433 3.95192C3.76876 4.46442 3.84904 4.99952 3.99519 5.55722C4.14134 6.11491 4.3399 6.67596 4.59086 7.24039ZM10.9284 13.4913C11.4351 13.7423 11.9752 13.9279 12.5488 14.0481C13.1224 14.1683 13.6221 14.2327 14.0481 14.2413C14.1058 14.2413 14.1538 14.2221 14.1923 14.1837C14.2308 14.1452 14.25 14.0971 14.25 14.0394V12.5337C14.25 12.4567 14.2308 12.3942 14.1923 12.3462C14.1538 12.2981 14.0962 12.2644 14.0192 12.2452L12.6317 11.9611C12.574 11.9418 12.5236 11.9394 12.4803 11.9539C12.437 11.9683 12.3913 11.9995 12.3433 12.0476L10.9284 13.4913Z" fill="#138ED1"/>
</g>
</g>
</svg>
