<svg width="18" height="18" viewBox="0 0 18 18" fill="none" xmlns="http://www.w3.org/2000/svg">
<g id="cardiology">
<mask id="mask0_767_1725" style="mask-type:alpha" maskUnits="userSpaceOnUse" x="0" y="0" width="18" height="18">
<rect id="Bounding box" width="18" height="18" fill="#D9D9D9"/>
</mask>
<g mask="url(#mask0_767_1725)">
<path id="cardiology_2" d="M5.625 3C6.28461 3 6.90336 3.16875 7.48125 3.50625C8.05914 3.84375 8.56539 4.33461 9 4.97884C9.43461 4.33461 9.94086 3.84375 10.5188 3.50625C11.0966 3.16875 11.7154 3 12.375 3C13.3288 3 14.1298 3.32404 14.7779 3.97211C15.426 4.62019 15.75 5.42115 15.75 6.375C15.75 6.45673 15.7469 6.53365 15.7406 6.60578C15.7344 6.67789 15.7264 6.75481 15.7168 6.83653H14.9668C14.9793 6.75481 14.988 6.67789 14.9928 6.60578C14.9976 6.53365 15 6.45673 15 6.375C15 5.625 14.75 5 14.25 4.5C13.75 4 13.125 3.75 12.375 3.75C11.7779 3.75 11.2269 3.92043 10.7221 4.26129C10.2173 4.60216 9.76539 5.11538 9.36636 5.80097H8.63364C8.22499 5.10577 7.77067 4.59014 7.27067 4.25409C6.77067 3.91803 6.22211 3.75 5.625 3.75C4.88461 3.75 4.26202 4 3.75722 4.5C3.25241 5 3 5.625 3 6.375C3 6.45673 3.00241 6.53365 3.00722 6.60578C3.01202 6.67789 3.02067 6.75481 3.03317 6.83653H2.28317C2.27356 6.75481 2.26562 6.67789 2.25938 6.60578C2.25313 6.53365 2.25 6.45673 2.25 6.375C2.25 5.42115 2.57404 4.62019 3.22211 3.97211C3.87019 3.32404 4.67115 3 5.625 3ZM9 14.6553C8.86346 14.6553 8.73414 14.6265 8.61203 14.5688C8.4899 14.5111 8.37451 14.4327 8.26586 14.3337C8.07163 14.1481 7.79831 13.8899 7.44591 13.5591C7.09351 13.2284 6.74375 12.8957 6.39664 12.5611C6.04951 12.2264 5.73629 11.925 5.45696 11.6567C5.17764 11.3885 5.01057 11.224 4.95576 11.1635H6.00289C6.40289 11.5606 6.85 11.9914 7.34422 12.4558C7.83846 12.9202 8.39039 13.4308 9 13.9875C9.60961 13.4308 10.1615 12.9202 10.6558 12.4558C11.15 11.9914 11.5971 11.5606 11.9971 11.1635H13.0486C12.9938 11.224 12.8267 11.3885 12.5474 11.6567C12.268 11.925 11.9524 12.2289 11.6005 12.5683C11.2486 12.9077 10.9005 13.2428 10.5562 13.5736C10.212 13.9043 9.94279 14.1577 9.74856 14.3337C9.63991 14.4423 9.52453 14.5231 9.40241 14.576C9.28029 14.6289 9.14615 14.6553 9 14.6553ZM8.2875 11.625C8.36346 11.625 8.42716 11.6022 8.4786 11.5565C8.53005 11.5108 8.57116 11.4514 8.60192 11.3784L9.85961 7.60097L10.862 9.10961C10.9245 9.19039 10.9976 9.25481 11.0813 9.30289C11.1649 9.35096 11.2596 9.375 11.3654 9.375H16.5C16.6067 9.375 16.6959 9.33918 16.7675 9.26754C16.8392 9.19592 16.875 9.10674 16.875 9C16.875 8.89326 16.8392 8.80408 16.7675 8.73246C16.6959 8.66082 16.6067 8.625 16.5 8.625H11.4361L10.0558 6.55384C10.0192 6.49904 9.97044 6.45793 9.90938 6.43052C9.84831 6.40312 9.78269 6.38942 9.7125 6.38942C9.63654 6.38942 9.57043 6.41226 9.51418 6.45793C9.45793 6.50361 9.41923 6.56298 9.39808 6.63606L8.14039 10.4236L7.11347 8.89039C7.05097 8.80961 6.97789 8.74519 6.89423 8.69711C6.81058 8.64904 6.71587 8.625 6.61011 8.625H1.5C1.39327 8.625 1.30409 8.66082 1.23244 8.73246C1.16081 8.80408 1.125 8.89326 1.125 9C1.125 9.10674 1.16081 9.19592 1.23244 9.26754C1.30409 9.33918 1.39327 9.375 1.5 9.375H6.53509L7.92981 11.4606C7.96634 11.525 8.01754 11.5685 8.08341 11.5911C8.14928 11.6137 8.21731 11.625 8.2875 11.625Z" fill="#138ED1"/>
</g>
</g>
</svg>
