<svg width="18" height="18" viewBox="0 0 18 18" fill="none" xmlns="http://www.w3.org/2000/svg">
<g id="emergency">
<mask id="mask0_767_1731" style="mask-type:alpha" maskUnits="userSpaceOnUse" x="0" y="0" width="18" height="18">
<rect id="Bounding box" width="18" height="18" fill="#D9D9D9"/>
</mask>
<g mask="url(#mask0_767_1731)">
<path id="emergency_2" d="M8.66838 15.375C8.49434 15.375 8.34987 15.3176 8.23496 15.2027C8.12006 15.0877 8.06261 14.9433 8.06261 14.7692V10.6385L4.47703 12.7111C4.33088 12.7918 4.17631 12.8144 4.01332 12.7789C3.85034 12.7433 3.72847 12.651 3.64769 12.5019L3.31597 11.9308C3.22558 11.7846 3.20299 11.626 3.24819 11.4548C3.29338 11.2837 3.39049 11.1577 3.53953 11.0769L7.12511 9L3.54386 6.94183C3.39482 6.86106 3.30011 6.73918 3.25972 6.57621C3.21933 6.41322 3.23953 6.25865 3.3203 6.1125L3.66644 5.5125C3.74722 5.36635 3.86838 5.27548 4.02991 5.23989C4.19145 5.20432 4.34674 5.22692 4.49578 5.30769L8.06261 7.38028V3.23077C8.06261 3.05674 8.12006 2.91226 8.23496 2.79735C8.34987 2.68245 8.49434 2.625 8.66838 2.625H9.33183C9.50587 2.625 9.65034 2.68245 9.76526 2.79735C9.88016 2.91226 9.93761 3.05674 9.93761 3.23077V7.38028L13.5088 5.30769C13.6549 5.22403 13.8095 5.20071 13.9725 5.23774C14.1354 5.27476 14.2573 5.36779 14.3381 5.51683L14.6799 6.1125C14.7607 6.25865 14.7802 6.41322 14.7383 6.57621C14.6965 6.73918 14.6025 6.86106 14.4564 6.94183L10.8751 9L14.4564 11.0769C14.6054 11.1606 14.7049 11.2832 14.7549 11.4447C14.8049 11.6063 14.7847 11.7601 14.6943 11.9062L14.3338 12.5063C14.253 12.6524 14.1311 12.7433 13.9681 12.7789C13.8052 12.8144 13.6506 12.7918 13.5044 12.7111L9.93761 10.6385V14.7692C9.93761 14.9433 9.88016 15.0877 9.76526 15.2027C9.65034 15.3176 9.50587 15.375 9.33183 15.375H8.66838Z" fill="#138ED1"/>
</g>
</g>
</svg>
