<svg width="14" height="14" viewBox="0 0 14 14" fill="none" xmlns="http://www.w3.org/2000/svg">
<g id="health_metrics">
<mask id="mask0_767_1749" style="mask-type:alpha" maskUnits="userSpaceOnUse" x="0" y="0" width="14" height="14">
<rect id="Bounding box" width="14" height="14" fill="#D9D9D9"/>
</mask>
<g mask="url(#mask0_767_1749)">
<path id="health_metrics_2" d="M5.60907 12.1602C5.34806 12.1602 5.12576 12.0684 4.94216 11.8848C4.75856 11.7012 4.66676 11.4789 4.66676 11.2179V9.33331H2.78215C2.52114 9.33331 2.29884 9.24151 2.11524 9.05792C1.93164 8.87431 1.83984 8.65201 1.83984 8.39101V5.60894C1.83984 5.34794 1.93164 5.12564 2.11524 4.94203C2.29884 4.75844 2.52114 4.66664 2.78215 4.66664H4.66676V2.78202C4.66676 2.52102 4.75856 2.29872 4.94216 2.11511C5.12576 1.93152 5.34806 1.83972 5.60907 1.83972H8.39113C8.65213 1.83972 8.87444 1.93152 9.05804 2.11511C9.24163 2.29872 9.33343 2.52102 9.33343 2.78202V4.66664H11.2181C11.4791 4.66664 11.7014 4.75844 11.885 4.94203C12.0686 5.12564 12.1604 5.34794 12.1604 5.60894V8.39101C12.1604 8.65201 12.0686 8.87431 11.885 9.05792C11.7014 9.24151 11.4791 9.33331 11.2181 9.33331H9.33343V11.2179C9.33343 11.4789 9.24163 11.7012 9.05804 11.8848C8.87444 12.0684 8.65213 12.1602 8.39113 12.1602H5.60907ZM2.42318 6.70831H5.2501C5.30245 6.70831 5.34807 6.71953 5.38696 6.74197C5.42585 6.7644 5.45838 6.7958 5.48455 6.83619L6.33151 8.09933L7.30972 5.16472C7.33364 5.1004 7.3686 5.04992 7.4146 5.01327C7.4606 4.97663 7.51687 4.95831 7.58343 4.95831C7.63579 4.95831 7.68327 4.96953 7.7259 4.99197C7.76853 5.0144 7.80293 5.0458 7.8291 5.08619L8.8993 6.70831H11.577V5.60894C11.577 5.50425 11.5434 5.41824 11.4761 5.35094C11.4088 5.28363 11.3227 5.24998 11.2181 5.24998H9.22126C9.08589 5.24998 8.97352 5.20529 8.88415 5.11593C8.79478 5.02655 8.7501 4.91418 8.7501 4.77882V2.78202C8.7501 2.67733 8.71644 2.59132 8.64914 2.52402C8.58183 2.45671 8.49583 2.42305 8.39113 2.42305H5.60907C5.50437 2.42305 5.41837 2.45671 5.35106 2.52402C5.28375 2.59132 5.2501 2.67733 5.2501 2.78202V4.77882C5.2501 4.91418 5.20541 5.02655 5.11605 5.11593C5.02667 5.20529 4.9143 5.24998 4.77894 5.24998H2.78215C2.67745 5.24998 2.59144 5.28363 2.52414 5.35094C2.45683 5.41824 2.42318 5.50425 2.42318 5.60894V6.70831ZM2.42318 7.29164V8.39101C2.42318 8.49571 2.45683 8.58171 2.52414 8.64902C2.59144 8.71632 2.67745 8.74998 2.78215 8.74998H4.77894C4.9143 8.74998 5.02667 8.79466 5.11605 8.88403C5.20541 8.9734 5.2501 9.08577 5.2501 9.22113V11.2179C5.2501 11.3226 5.28375 11.4086 5.35106 11.4759C5.41837 11.5432 5.50437 11.5769 5.60907 11.5769H8.39113C8.49583 11.5769 8.58183 11.5432 8.64914 11.4759C8.71644 11.4086 8.7501 11.3226 8.7501 11.2179V9.22113C8.7501 9.08577 8.79478 8.9734 8.88415 8.88403C8.97352 8.79466 9.08589 8.74998 9.22126 8.74998H11.2181C11.3227 8.74998 11.4088 8.71632 11.4761 8.64902C11.5434 8.58171 11.577 8.49571 11.577 8.39101V7.29164H8.7501C8.69774 7.29164 8.65026 7.27856 8.60763 7.25238C8.565 7.2262 8.52948 7.19292 8.50106 7.15255L7.66869 5.90063L6.69048 8.83523C6.66655 8.89955 6.62916 8.95004 6.5783 8.98668C6.52745 9.02332 6.46874 9.04164 6.40218 9.04164C6.34983 9.04164 6.30421 9.03042 6.26532 9.00798C6.22643 8.98555 6.1939 8.95415 6.16773 8.91376L5.08631 7.29164H2.42318ZM1.83984 7.29164H2.42318V8.39101C2.42318 8.49571 2.45683 8.58171 2.52414 8.64902C2.59144 8.71632 2.67745 8.74998 2.78215 8.74998H4.77894C4.9143 8.74998 5.02667 8.79466 5.11605 8.88403C5.20541 8.9734 5.2501 9.08577 5.2501 9.22113V11.2179C5.2501 11.3226 5.28375 11.4086 5.35106 11.4759C5.41837 11.5432 5.50437 11.5769 5.60907 11.5769H8.39113C8.49583 11.5769 8.58183 11.5432 8.64914 11.4759C8.71644 11.4086 8.7501 11.3226 8.7501 11.2179V9.22113C8.7501 9.08577 8.79478 8.9734 8.88415 8.88403C8.97352 8.79466 9.08589 8.74998 9.22126 8.74998H11.2181C11.3227 8.74998 11.4088 8.71632 11.4761 8.64902C11.5434 8.58171 11.577 8.49571 11.577 8.39101V7.29164H12.1604V6.70831H11.577V5.60894C11.577 5.50425 11.5434 5.41824 11.4761 5.35094C11.4088 5.28363 11.3227 5.24998 11.2181 5.24998H9.22126C9.08589 5.24998 8.97352 5.20529 8.88415 5.11593C8.79478 5.02655 8.7501 4.91418 8.7501 4.77882V2.78202C8.7501 2.67733 8.71644 2.59132 8.64914 2.52402C8.58183 2.45671 8.49583 2.42305 8.39113 2.42305H5.60907C5.50437 2.42305 5.41837 2.45671 5.35106 2.52402C5.28375 2.59132 5.2501 2.67733 5.2501 2.78202V4.77882C5.2501 4.91418 5.20541 5.02655 5.11605 5.11593C5.02667 5.20529 4.9143 5.24998 4.77894 5.24998H2.78215C2.67745 5.24998 2.59144 5.28363 2.52414 5.35094C2.45683 5.41824 2.42318 5.50425 2.42318 5.60894V6.70831H1.83984V7.29164Z" fill="white"/>
</g>
</g>
</svg>
