<svg width="18" height="18" viewBox="0 0 18 18" fill="none" xmlns="http://www.w3.org/2000/svg">
<mask id="mask0_767_1713" style="mask-type:alpha" maskUnits="userSpaceOnUse" x="0" y="0" width="18" height="18">
<rect width="18" height="18" fill="#D9D9D9"/>
</mask>
<g mask="url(#mask0_767_1713)">
<path d="M4.5 14.25H7.26922V10.4423C7.26922 10.2707 7.32728 10.1268 7.44339 10.0107C7.55949 9.8946 7.70336 9.83655 7.875 9.83655H10.125C10.2966 9.83655 10.4405 9.8946 10.5566 10.0107C10.6727 10.1268 10.7308 10.2707 10.7308 10.4423V14.25H13.5V7.73079C13.5 7.65387 13.4832 7.58415 13.4495 7.52165C13.4159 7.45915 13.3702 7.40387 13.3125 7.35579L9.27403 4.31252C9.19711 4.2452 9.10576 4.21155 9 4.21155C8.89424 4.21155 8.80289 4.2452 8.72597 4.31252L4.6875 7.35579C4.62981 7.40387 4.58414 7.45915 4.55048 7.52165C4.51683 7.58415 4.5 7.65387 4.5 7.73079V14.25ZM3.75 14.25V7.73079C3.75 7.53895 3.79291 7.35722 3.87872 7.1856C3.96454 7.01396 4.08317 6.87261 4.23461 6.76155L8.27308 3.70385C8.48442 3.54232 8.72596 3.46155 8.99769 3.46155C9.26942 3.46155 9.51249 3.54232 9.72692 3.70385L13.7654 6.76155C13.9168 6.87261 14.0355 7.01396 14.1213 7.1856C14.2071 7.35722 14.25 7.53895 14.25 7.73079V14.25C14.25 14.451 14.1752 14.6262 14.0257 14.7757C13.8762 14.9253 13.701 15 13.5 15H10.5865C10.4149 15 10.271 14.942 10.1549 14.8259C10.0388 14.7098 9.98077 14.5659 9.98077 14.3943V10.5866H8.01923V14.3943C8.01923 14.5659 7.96117 14.7098 7.84507 14.8259C7.72896 14.942 7.58509 15 7.41347 15H4.5C4.29904 15 4.12379 14.9253 3.97427 14.7757C3.82476 14.6262 3.75 14.451 3.75 14.25Z" fill="#138ED1"/>
</g>
</svg>
