<svg width="18" height="18" viewBox="0 0 18 18" fill="none" xmlns="http://www.w3.org/2000/svg">
<g id="labs">
<mask id="mask0_767_1719" style="mask-type:alpha" maskUnits="userSpaceOnUse" x="0" y="0" width="18" height="18">
<rect id="Bounding box" width="18" height="18" fill="#D9D9D9"/>
</mask>
<g mask="url(#mask0_767_1719)">
<path id="labs_2" d="M9.00031 15.3317C8.13041 15.3317 7.38889 15.0251 6.77577 14.412C6.16263 13.7989 5.85606 13.0574 5.85606 12.1875V5.53843C5.52049 5.53843 5.23467 5.41979 4.99862 5.18253C4.76256 4.94527 4.64453 4.66005 4.64453 4.32687V3.31726C4.64453 2.98409 4.76316 2.69887 5.00043 2.46161C5.23769 2.22434 5.5229 2.10571 5.85606 2.10571H12.1445C12.4777 2.10571 12.7629 2.22434 13.0002 2.46161C13.2375 2.69887 13.3561 2.98409 13.3561 3.31726V4.32687C13.3561 4.66005 13.2375 4.94527 13.0002 5.18253C12.7629 5.41979 12.4777 5.53843 12.1445 5.53843L12.1301 12.3894C12.082 13.2153 11.7599 13.9122 11.1636 14.48C10.5674 15.0478 9.84627 15.3317 9.00031 15.3317ZM5.85606 4.78843H12.1445C12.2792 4.78843 12.3897 4.74515 12.4763 4.6586C12.5628 4.57206 12.6061 4.46149 12.6061 4.32687V3.31726C12.6061 3.18265 12.5628 3.07208 12.4763 2.98554C12.3897 2.899 12.2792 2.85573 12.1445 2.85573H5.85606C5.72145 2.85573 5.61087 2.899 5.52434 2.98554C5.4378 3.07208 5.39453 3.18265 5.39453 3.31726V4.32687C5.39453 4.46149 5.4378 4.57206 5.52434 4.6586C5.61087 4.74515 5.72145 4.78843 5.85606 4.78843ZM9.00031 14.5817C9.60319 14.5817 10.1248 14.3882 10.5652 14.0012C11.0056 13.6141 11.2671 13.1346 11.3498 12.5625H9.75031C9.64406 12.5625 9.55499 12.5265 9.48312 12.4545C9.41124 12.3825 9.37531 12.2934 9.37531 12.187C9.37531 12.0806 9.41124 11.9915 9.48312 11.9199C9.55499 11.8483 9.64406 11.8125 9.75031 11.8125H11.3945V10.3125H9.75031C9.64406 10.3125 9.55499 10.2765 9.48312 10.2045C9.41124 10.1325 9.37531 10.0433 9.37531 9.93695C9.37531 9.83056 9.41124 9.74155 9.48312 9.66991C9.55499 9.59828 9.64406 9.56246 9.75031 9.56246H11.3945V8.06246H9.75031C9.64406 8.06246 9.55499 8.02647 9.48312 7.95451C9.41124 7.88254 9.37531 7.79335 9.37531 7.68695C9.37531 7.58056 9.41124 7.49155 9.48312 7.41991C9.55499 7.34828 9.64406 7.31246 9.75031 7.31246H11.3945V5.53843H6.60608V12.1875C6.60608 12.8525 6.83885 13.4178 7.30439 13.8834C7.76994 14.3489 8.33524 14.5817 9.00031 14.5817Z" fill="#138ED1"/>
</g>
</g>
</svg>
