<svg width="14" height="14" viewBox="0 0 14 14" fill="none" xmlns="http://www.w3.org/2000/svg">
<g id="pill">
<mask id="mask0_767_1755" style="mask-type:alpha" maskUnits="userSpaceOnUse" x="0" y="0" width="14" height="14">
<rect id="Bounding box" width="14" height="14" fill="#D9D9D9"/>
</mask>
<g mask="url(#mask0_767_1755)">
<path id="pill_2" d="M5.03141 11.6667C4.28205 11.6667 3.64506 11.4044 3.12043 10.8798C2.59581 10.3551 2.3335 9.71815 2.3335 8.96879C2.3335 8.60607 2.40304 8.25906 2.54214 7.92776C2.68125 7.59646 2.87644 7.30516 3.12772 7.05388L7.054 3.1276C7.30528 2.87632 7.59658 2.68112 7.92788 2.54202C8.25919 2.40292 8.6062 2.33337 8.96891 2.33337C9.71827 2.33337 10.3553 2.59568 10.8799 3.12031C11.4045 3.64494 11.6668 4.28193 11.6668 5.03129C11.6668 5.39401 11.5973 5.74102 11.4582 6.07232C11.3191 6.40363 11.1239 6.69492 10.8726 6.9462L6.94632 10.8725C6.69504 11.1238 6.40375 11.319 6.07244 11.4581C5.74114 11.5972 5.39413 11.6667 5.03141 11.6667ZM8.70866 8.28113L10.471 6.53337C10.6654 6.33893 10.8161 6.11046 10.9231 5.84796C11.03 5.58546 11.0835 5.31324 11.0835 5.03129C11.0835 4.44796 10.8769 3.94969 10.4637 3.5365C10.0505 3.1233 9.55225 2.91671 8.96891 2.91671C8.68697 2.91671 8.41475 2.97018 8.15225 3.07712C7.88975 3.18407 7.66127 3.33476 7.46683 3.52921L5.71907 5.29154L8.70866 8.28113ZM5.03141 11.0834C5.31336 11.0834 5.58558 11.0299 5.84808 10.923C6.11058 10.816 6.33905 10.6653 6.5335 10.4709L8.28125 8.70854L5.29167 5.71895L3.52933 7.46671C3.33488 7.66115 3.18419 7.88962 3.07725 8.15212C2.9703 8.41462 2.91683 8.68685 2.91683 8.96879C2.91683 9.55212 3.12343 10.0504 3.53662 10.4636C3.94982 10.8768 4.44808 11.0834 5.03141 11.0834Z" fill="white"/>
</g>
</g>
</svg>
